<svg xmlns="http://www.w3.org/2000/svg" viewBox="0 0 64 64">
  <defs>
    <linearGradient id="grad1" x1="0%" y1="0%" x2="100%" y2="100%">
      <stop offset="0%" style="stop-color:#8B5CF6;stop-opacity:1" />
      <stop offset="100%" style="stop-color:#6366F1;stop-opacity:1" />
    </linearGradient>
  </defs>
  <!-- Background circle -->
  <circle cx="32" cy="32" r="30" fill="url(#grad1)"/>
  <!-- Brain outline -->
  <path d="M32 12c-8 0-14 6-14 14 0 4 2 8 5 10v8c0 2 2 4 4 4h10c2 0 4-2 4-4v-8c3-2 5-6 5-10 0-8-6-14-14-14z" fill="white" opacity="0.9"/>
  <!-- Neural connections -->
  <circle cx="26" cy="24" r="3" fill="#8B5CF6"/>
  <circle cx="38" cy="24" r="3" fill="#8B5CF6"/>
  <circle cx="32" cy="32" r="3" fill="#6366F1"/>
  <circle cx="26" cy="36" r="2" fill="#8B5CF6"/>
  <circle cx="38" cy="36" r="2" fill="#8B5CF6"/>
  <!-- Connection lines -->
  <line x1="26" y1="24" x2="32" y2="32" stroke="#8B5CF6" stroke-width="1.5"/>
  <line x1="38" y1="24" x2="32" y2="32" stroke="#8B5CF6" stroke-width="1.5"/>
  <line x1="26" y1="36" x2="32" y2="32" stroke="#6366F1" stroke-width="1.5"/>
  <line x1="38" y1="36" x2="32" y2="32" stroke="#6366F1" stroke-width="1.5"/>
  <!-- Pulse rings -->
  <circle cx="32" cy="32" r="18" fill="none" stroke="white" stroke-width="1" opacity="0.3"/>
</svg>
